<svg className="inline" height="24" viewBox="0 0 102 39" fill="" xmlns="http://www.w3.org/2000/svg">
  <path d="M22.3431 26.5747H32.9367L19.5976 0L4.33245 30.4093L0 39H10.5953L14.0837 32.0841L19.5976 21.1093L22.3431 26.5747Z" fill="#ffffff" />
  <path d="M42.2637 2.21238C36.4344 2.21238 31.6923 7.04446 31.6923 12.9922V13.1812C31.6782 15.3523 32.3212 17.4754 33.5342 19.2636C33.9209 19.8771 34.3717 20.4464 34.8789 20.9617L34.8976 20.9807C36.8686 22.9286 39.5129 24.0152 42.2637 24.0076H54.0498C54.7537 24.0135 55.4271 24.2999 55.925 24.8051C56.4228 25.3103 56.7052 25.9938 56.7112 26.7084C56.7019 27.4219 56.4185 28.1036 55.9214 28.6081C55.4243 29.1126 54.7527 29.4 54.0498 29.4092L19.3698 29.5032L14.7152 38.9586H54.383C54.4306 38.9482 54.4995 38.9327 54.5811 38.9128C59.5255 37.729 65.7951 33.079 66.1121 26.7886C66.2864 23.332 64.606 20.5251 63.3922 18.9365L63.3284 18.8554L63.2553 18.7812C63.2426 18.7683 63.206 18.7234 63.1796 18.6949C63.115 18.6155 63.0284 18.5111 62.9179 18.3946C61.785 17.1411 60.4081 16.1401 58.8742 15.4551C57.3403 14.77 55.683 14.4159 54.0073 14.4151H42.2637C41.9549 14.4111 41.6598 14.2848 41.4413 14.0632C41.2229 13.8416 41.0983 13.5421 41.0941 13.2286V13.0388C41.0996 12.725 41.2252 12.4257 41.4443 12.2042C41.6634 11.9828 41.9588 11.8566 42.2679 11.8524L97.2502 11.7186L102 2.25639L42.2637 2.21238Z" fill="#ffffff" />
  <path d="M68.2108 25.3762V38.9586H77.6339L77.6603 25.3762C77.6642 25.0627 77.7886 24.7631 78.0069 24.5414C78.2252 24.3196 78.5202 24.1931 78.829 24.1888H90.9908L95.8052 14.5972H78.7823C72.953 14.5972 68.2108 19.4327 68.2108 25.3762Z" fill="#ffffff" />
</svg>
